<svg xmlns="http://www.w3.org/2000/svg" viewBox="0 0 32 32" role="img" aria-label="Wolf AI">
  <defs>
    <linearGradient id="wolf-accent" x1="0%" y1="0%" x2="100%" y2="100%">
      <stop offset="0%" stop-color="#f97316"/>
      <stop offset="100%" stop-color="#ef4444"/>
    </linearGradient>
  </defs>
  <rect width="32" height="32" rx="8" fill="#0a0c10"/>
  <path
    fill="url(#wolf-accent)"
    d="M16 24.5C16 24.5 9.5 21.5 8 16.5C7.3 14.5 7.8 12 7.8 12L11 14.5L16 11L21 14.5L24.2 12C24.2 12 24.7 14.5 24 16.5C22.5 21.5 16 24.5 16 24.5Z"
  />
  <g fill="#0a0c10">
    <path d="M10 12.6 L13.2 13.7 L12.6 14.8 L9.4 13.7 Z"/>
    <path d="M22 12.6 L18.8 13.7 L19.4 14.8 L22.6 13.7 Z"/>
    <ellipse cx="12" cy="16.4" rx="1.85" ry="1" transform="rotate(-18 12 16.4)"/>
    <ellipse cx="20" cy="16.4" rx="1.85" ry="1" transform="rotate(18 20 16.4)"/>
  </g>
</svg>
